<?xml version="1.0" encoding="utf-8"?>
<!-- Generator: Adobe Illustrator 24.0.3, SVG Export Plug-In . SVG Version: 6.00 Build 0)  -->
<svg version="1.1" id="Ebene_1" xmlns="http://www.w3.org/2000/svg" xmlns:xlink="http://www.w3.org/1999/xlink" x="0px" y="0px"
	 width="237.8px" height="52.7px" viewBox="0 0 237.8 52.7" style="enable-background:new 0 0 237.8 52.7;" xml:space="preserve">
<style type="text/css">
	.st0{fill:#CF776B;}
	.st1{display:none;}
	.st2{display:inline;}
</style>
<g>
	<path id="Pfad_18_1_" class="st0" d="M38.8,8L36,6.4C25.8,14,11,13.8,0,19.9v3.6C11.6,16.1,28.1,17,38.8,8z"/>
	<path id="Pfad_19_1_" class="st0" d="M44.2,11.1C44.1,11,44,11,43.9,10.9l-2.3-1.3C30.5,20.2,12.1,18.3,0,27.2v3.9
		C12.4,20.4,32.8,23.5,44.2,11.1z"/>
	<path id="Pfad_20_1_" class="st0" d="M33.1,4.7L30,3c-8.6,5-19.7,5.9-29,9.7c-0.7,1-1,2.1-1,3.3v0.5C10.3,11.4,23.4,11,33.1,4.7z"
		/>
	<path id="Pfad_21_1_" class="st0" d="M20.5,0.8L10.3,6.6C16,5.1,21.8,3.7,26.9,1.1l-0.7-0.4C24.5-0.3,22.3-0.3,20.5,0.8z"/>
	<path id="Pfad_22_1_" class="st0" d="M46.7,17v-1c0-0.9-0.2-1.8-0.6-2.6C34.4,26.8,12.3,22.6,0,35.2v1c0,0.9,0.2,1.8,0.6,2.6
		C12.4,25.4,34.5,29.5,46.7,17z"/>
	<path id="Pfad_23_1_" class="st0" d="M5.2,42.6C16.2,32,34.7,33.9,46.7,25v-3.9C34.4,31.8,13.9,28.6,2.6,41
		c0.1,0.1,0.2,0.1,0.3,0.2L5.2,42.6z"/>
	<path id="Pfad_24_1_" class="st0" d="M26.3,51.4l10.1-5.8C30.7,47,24.9,48.4,19.8,51l0.7,0.4C22.3,52.4,24.5,52.4,26.3,51.4z"/>
	<path id="Pfad_25_1_" class="st0" d="M7.9,44.2l2.8,1.6c10.2-7.6,25-7.4,36-13.5v-3.6C35.1,36.1,18.6,35.1,7.9,44.2z"/>
	<path id="Pfad_26_1_" class="st0" d="M45.7,39.5c0.7-1,1-2.1,1-3.3v-0.5c-10.3,5.1-23.4,5.4-33.1,11.8l3,1.7
		C25.3,44.2,36.4,43.3,45.7,39.5z"/>
	<g>
		<g>
			<path d="M111.2,17.9v6.7h6.8v-6.7h3.6v17.2H118v-7.2h-6.8v7.2h-3.6V17.9H111.2z"/>
			<path d="M134.7,34.4c-0.9,0.7-2.2,1.1-4,1.1c-2.1,0-3.7-0.6-4.7-1.7c-1.1-1.2-1.6-2.8-1.6-4.9c0-1.1,0.2-2,0.5-2.8
				s0.7-1.5,1.3-2.1c0.6-0.6,1.2-1,2-1.3c0.8-0.3,1.6-0.4,2.6-0.4c1.9,0,3.4,0.6,4.4,1.7s1.5,2.6,1.5,4.5v1.4H128
				c0,1,0.3,1.8,0.8,2.4s1.2,0.9,2.2,0.9c1.3,0,2.1-0.6,2.4-1.7h3.3C136.2,32.6,135.6,33.7,134.7,34.4z M132.7,25.4
				c-0.4-0.5-1.1-0.7-2-0.7c-0.4,0-0.8,0.1-1.2,0.2c-0.3,0.1-0.6,0.3-0.9,0.6s-0.4,0.5-0.5,0.9c-0.1,0.3-0.2,0.7-0.2,1.1h5.4
				C133.3,26.5,133.1,25.9,132.7,25.4z"/>
			<path d="M144.9,34.9c-0.6,0.4-1.4,0.5-2.4,0.5c-0.6,0-1.1-0.1-1.6-0.2c-0.5-0.1-0.9-0.4-1.3-0.7c-0.4-0.3-0.7-0.7-0.9-1.2
				s-0.3-1-0.3-1.7c0-0.9,0.2-1.6,0.6-2.1c0.4-0.5,0.9-1,1.5-1.3s1.3-0.5,2.1-0.7c0.8-0.1,1.6-0.2,2.4-0.2l1.6-0.1v-0.6
				c0-0.8-0.2-1.3-0.6-1.6s-0.9-0.4-1.5-0.4c-1.3,0-2.1,0.5-2.3,1.5l-3.1-0.3c0.2-1.3,0.8-2.3,1.7-2.9s2.2-0.9,3.8-0.9
				c1,0,1.8,0.1,2.5,0.4c0.7,0.2,1.2,0.6,1.6,1s0.7,1,0.9,1.6s0.3,1.3,0.3,2.1v8h-3.2v-1.6C146.1,34.1,145.5,34.5,144.9,34.9z
				 M145,29.5c-0.7,0-1.3,0.1-1.7,0.2s-0.8,0.3-1,0.4s-0.4,0.4-0.5,0.6s-0.1,0.5-0.1,0.7c0,0.4,0.1,0.7,0.4,1s0.7,0.4,1.2,0.4
				c0.9,0,1.6-0.2,2.1-0.6c0.3-0.2,0.6-0.5,0.7-0.9c0.2-0.3,0.3-0.8,0.3-1.3v-0.7L145,29.5z"/>
			<path d="M151.4,25.1v-2.6h2v-3.4h3.4v3.4h2.9v2.6h-2.9v5.8c0,0.7,0.1,1.1,0.4,1.3s0.6,0.3,1.1,0.3c0.2,0,0.5,0,0.7,0
				s0.5-0.1,0.7-0.1l0.5,2.5c-0.5,0.1-0.9,0.2-1.4,0.3c-0.4,0.1-0.9,0.1-1.3,0.1c-1.4,0-2.4-0.3-3.1-1c-0.7-0.7-1-1.8-1-3.3v-5.9
				H151.4L151.4,25.1z"/>
			<path d="M165.1,32.5c0.5,0.2,1.1,0.3,1.7,0.3c0.8,0,1.4-0.1,1.7-0.3s0.5-0.5,0.5-1c0-0.3-0.1-0.6-0.3-0.8
				c-0.2-0.2-0.6-0.4-1.2-0.5l-1.7-0.3c-1.5-0.2-2.7-0.7-3.4-1.2s-1.1-1.5-1.1-2.7c0-0.6,0.1-1.2,0.4-1.6c0.3-0.5,0.6-0.9,1.1-1.2
				c0.5-0.3,1.1-0.6,1.7-0.8c0.7-0.2,1.4-0.3,2.2-0.3c1,0,1.8,0.1,2.5,0.3c0.7,0.2,1.2,0.5,1.7,0.8c0.4,0.3,0.7,0.7,1,1.2
				s0.4,1,0.5,1.5l-3,0.4c-0.1-0.6-0.4-1-0.8-1.3s-0.9-0.4-1.7-0.4c-0.4,0-0.8,0-1.1,0.1s-0.5,0.2-0.7,0.3c-0.2,0.1-0.3,0.2-0.4,0.4
				s-0.1,0.3-0.1,0.4c0,0.4,0.1,0.7,0.4,0.9c0.2,0.2,0.7,0.3,1.5,0.5l1.6,0.3c0.9,0.1,1.6,0.3,2.2,0.6c0.6,0.2,1,0.5,1.4,0.8
				s0.6,0.7,0.7,1.2s0.2,1,0.2,1.6c0,1.2-0.4,2.1-1.4,2.9s-2.3,1.1-4.2,1.1c-0.8,0-1.5-0.1-2.2-0.2c-0.7-0.1-1.3-0.4-1.8-0.7
				s-1-0.8-1.3-1.4c-0.3-0.6-0.5-1.3-0.6-2.1h3.2C164.3,31.8,164.6,32.3,165.1,32.5z"/>
			<path d="M184.5,34.1c-0.9,0.9-2.3,1.3-4.1,1.3c-1.1,0-2-0.2-2.8-0.5s-1.4-0.8-1.9-1.4c-0.5-0.6-0.9-1.3-1.1-2.1
				c-0.2-0.8-0.4-1.7-0.4-2.7s0.1-1.9,0.4-2.7c0.3-0.8,0.7-1.5,1.2-2.1s1.2-1,2-1.4c0.8-0.3,1.7-0.5,2.7-0.5c0.9,0,1.6,0.1,2.2,0.3
				c0.6,0.2,1.2,0.5,1.6,0.9c0.4,0.4,0.8,0.8,1,1.4s0.4,1.1,0.5,1.8l-3.4,0.5c-0.1-0.6-0.3-1.2-0.6-1.6s-0.8-0.6-1.5-0.6
				c-0.5,0-0.9,0.1-1.3,0.3c-0.3,0.2-0.6,0.5-0.8,0.9s-0.3,0.8-0.4,1.3c-0.1,0.5-0.1,1-0.1,1.5s0,1,0.1,1.5s0.2,0.9,0.4,1.3
				s0.5,0.7,0.8,0.9s0.8,0.3,1.3,0.3c0.7,0,1.2-0.2,1.6-0.6c0.4-0.4,0.6-0.9,0.7-1.7h3.4C185.9,32,185.4,33.2,184.5,34.1z"/>
			<path d="M191.8,22.5v1.8c0.4-0.7,0.9-1.2,1.5-1.5s1.2-0.5,1.9-0.5c0.3,0,0.6,0,0.8,0s0.4,0.1,0.6,0.1l-0.4,3.1
				c-0.4-0.1-0.9-0.1-1.4-0.1c-0.4,0-0.7,0-1.1,0.1c-0.3,0.1-0.6,0.3-0.9,0.5c-0.3,0.3-0.5,0.5-0.6,0.9c-0.1,0.3-0.2,0.7-0.2,1v7.3
				h-3.4V22.5H191.8z"/>
			<path d="M207.8,34.4c-0.9,0.7-2.2,1.1-4,1.1c-2.1,0-3.7-0.6-4.7-1.7c-1.1-1.2-1.6-2.8-1.6-4.9c0-1.1,0.2-2,0.5-2.8
				s0.7-1.5,1.3-2.1s1.2-1,2-1.3s1.6-0.4,2.6-0.4c1.9,0,3.4,0.6,4.4,1.7s1.5,2.6,1.5,4.5v1.4h-8.7c0,1,0.3,1.8,0.8,2.4
				s1.2,0.9,2.2,0.9c1.3,0,2.1-0.6,2.4-1.7h3.3C209.3,32.6,208.7,33.7,207.8,34.4z M205.8,25.4c-0.4-0.5-1.1-0.7-2-0.7
				c-0.4,0-0.8,0.1-1.2,0.2c-0.3,0.1-0.6,0.3-0.9,0.6s-0.4,0.5-0.5,0.9c-0.1,0.3-0.2,0.7-0.2,1.1h5.4
				C206.4,26.5,206.2,25.9,205.8,25.4z"/>
			<path d="M222,34.4c-0.9,0.7-2.2,1.1-4,1.1c-2.1,0-3.7-0.6-4.7-1.7c-1.1-1.2-1.6-2.8-1.6-4.9c0-1.1,0.2-2,0.5-2.8s0.7-1.5,1.3-2.1
				s1.2-1,2-1.3s1.6-0.4,2.6-0.4c1.9,0,3.4,0.6,4.4,1.7s1.5,2.6,1.5,4.5v1.4h-8.7c0,1,0.3,1.8,0.8,2.4s1.2,0.9,2.2,0.9
				c1.3,0,2.1-0.6,2.4-1.7h3.3C223.5,32.6,222.9,33.7,222,34.4z M220,25.4c-0.4-0.5-1.1-0.7-2-0.7c-0.4,0-0.8,0.1-1.2,0.2
				c-0.3,0.1-0.6,0.3-0.9,0.6s-0.4,0.5-0.5,0.9c-0.1,0.3-0.2,0.7-0.2,1.1h5.4C220.6,26.5,220.4,25.9,220,25.4z"/>
			<path d="M229.7,22.5v1.7c0.5-0.7,1.1-1.3,1.8-1.6c0.7-0.3,1.4-0.5,2.1-0.5c1.4,0,2.5,0.4,3.2,1.1s1,1.9,1,3.5V35h-3.4v-7.9
				c0-0.9-0.2-1.5-0.5-1.8s-0.8-0.5-1.4-0.5c-0.4,0-0.8,0.1-1.1,0.2s-0.6,0.3-0.9,0.6c-0.2,0.2-0.4,0.5-0.6,0.8
				c-0.2,0.3-0.2,0.7-0.2,1V35h-3.4V22.5H229.7z"/>
		</g>
		<g>
			<path d="M58.5,43.1v9.3h-1.2v-9.3H58.5z"/>
			<path d="M61.5,45.7v1c0.3-0.4,0.7-0.8,1.1-0.9c0.4-0.2,0.8-0.3,1.3-0.3c0.8,0,1.3,0.2,1.7,0.6c0.4,0.4,0.6,1,0.6,1.8v4.5H65v-4.3
				c0-0.6-0.1-1.1-0.3-1.3s-0.6-0.4-1-0.4c-0.3,0-0.5,0-0.7,0.1s-0.5,0.2-0.7,0.4s-0.4,0.4-0.5,0.6c-0.1,0.2-0.2,0.5-0.2,0.8v4h-1.1
				v-6.7C60.4,45.7,61.5,45.7,61.5,45.7z"/>
			<path d="M67.2,46.6v-0.9h1.1v-0.6c0-0.4,0.1-0.7,0.2-0.9c0.1-0.3,0.3-0.5,0.4-0.6c0.2-0.2,0.4-0.3,0.7-0.4S70,43,70.3,43
				c0.2,0,0.4,0,0.6,0s0.4,0.1,0.6,0.1L71.3,44c-0.2,0-0.3,0-0.4,0s-0.2,0-0.4,0c-0.3,0-0.6,0.1-0.8,0.2c-0.2,0.2-0.3,0.5-0.3,0.9
				v0.6h1.7v0.9h-1.7v5.8h-1.1v-5.8L67.2,46.6L67.2,46.6z"/>
			<path d="M73.3,45.7v1c0.3-0.4,0.5-0.7,0.9-0.9c0.3-0.2,0.7-0.3,1.1-0.3c0.2,0,0.4,0,0.6,0.1l-0.1,1.1c-0.1,0-0.2,0-0.3,0
				c-0.1,0-0.2,0-0.3,0c-0.2,0-0.4,0-0.6,0.1S74.2,47,74,47.2s-0.3,0.4-0.4,0.6c-0.1,0.2-0.2,0.5-0.2,0.8v4h-1.1v-6.7h1V45.7z"/>
			<path d="M80.1,52.3c-0.4,0.2-0.8,0.3-1.4,0.3c-0.3,0-0.6,0-0.9-0.1s-0.5-0.2-0.7-0.4s-0.4-0.4-0.5-0.6c-0.1-0.3-0.2-0.5-0.2-0.9
				c0-0.5,0.1-0.8,0.3-1.1c0.2-0.3,0.5-0.5,0.8-0.7s0.7-0.3,1.1-0.4c0.4-0.1,0.8-0.1,1.3-0.1h1.2V48c0-0.6-0.1-1-0.4-1.2
				s-0.6-0.4-1.2-0.4c-0.5,0-0.9,0.1-1.2,0.3c-0.3,0.2-0.4,0.4-0.5,0.7l-1-0.1c0.1-0.6,0.4-1.1,0.9-1.3s1.1-0.4,1.9-0.4
				c0.5,0,0.9,0.1,1.2,0.2s0.6,0.3,0.8,0.5s0.4,0.5,0.4,0.8c0.1,0.3,0.1,0.7,0.1,1.1v4.4H81v-0.9C80.8,51.8,80.5,52,80.1,52.3z
				 M79.9,49.1c-0.5,0-0.8,0.1-1.1,0.1c-0.3,0.1-0.5,0.2-0.7,0.3s-0.3,0.3-0.4,0.4c-0.1,0.2-0.1,0.4-0.1,0.6c0,0.3,0.1,0.6,0.3,0.8
				s0.5,0.3,1,0.3c0.7,0,1.2-0.2,1.6-0.5s0.6-0.8,0.6-1.4v-0.8L79.9,49.1z"/>
			<path d="M84.9,45.7v1c0.3-0.4,0.5-0.7,0.9-0.9c0.3-0.2,0.7-0.3,1.1-0.3c0.2,0,0.4,0,0.6,0.1l-0.1,1.1c-0.1,0-0.2,0-0.3,0
				c-0.1,0-0.2,0-0.3,0c-0.2,0-0.4,0-0.6,0.1s-0.4,0.2-0.6,0.4s-0.3,0.4-0.4,0.6C85,47.9,85,48.1,85,48.4v4h-1.1v-6.7H84.9z"/>
			<path d="M89.9,52.4c-0.4-0.2-0.7-0.4-1-0.7s-0.5-0.7-0.6-1.1s-0.3-1-0.3-1.5s0.1-1,0.2-1.5c0.2-0.4,0.4-0.8,0.7-1.1
				s0.6-0.6,1-0.7s0.9-0.3,1.3-0.3c0.5,0,1,0.1,1.4,0.2c0.4,0.2,0.7,0.4,1,0.7s0.5,0.7,0.6,1.1c0.1,0.4,0.2,0.9,0.2,1.5
				s-0.1,1.1-0.2,1.5c-0.2,0.4-0.4,0.8-0.7,1.1c-0.3,0.3-0.6,0.6-1,0.7c-0.4,0.2-0.9,0.3-1.4,0.3C90.7,52.6,90.3,52.5,89.9,52.4z
				 M92.2,51.5c0.3-0.1,0.5-0.3,0.6-0.5s0.3-0.5,0.4-0.8s0.1-0.7,0.1-1.1c0-0.4,0-0.7-0.1-1.1c-0.1-0.3-0.2-0.6-0.4-0.8
				s-0.4-0.4-0.6-0.5c-0.3-0.1-0.6-0.2-0.9-0.2s-0.7,0.1-0.9,0.2s-0.5,0.3-0.6,0.5s-0.3,0.5-0.4,0.8s-0.1,0.7-0.1,1.1
				c0,0.4,0,0.7,0.1,1.1c0.1,0.3,0.2,0.6,0.4,0.8s0.4,0.4,0.6,0.5s0.6,0.2,0.9,0.2S91.9,51.6,92.2,51.5z"/>
			<path d="M95.3,46.6v-0.9h1v-1.8h1.1v1.8h1.8v0.9h-1.8v3.9c0,0.3,0.1,0.6,0.2,0.8s0.4,0.3,0.7,0.3c0.2,0,0.4,0,0.5,0
				s0.3-0.1,0.4-0.1l0.2,0.9c-0.2,0.1-0.4,0.1-0.6,0.2s-0.4,0.1-0.7,0.1c-0.4,0-0.7-0.1-0.9-0.2c-0.2-0.1-0.4-0.3-0.6-0.5
				c-0.1-0.2-0.2-0.5-0.3-0.7s-0.1-0.6-0.1-0.9v-3.6C96.3,46.6,95.3,46.6,95.3,46.6z"/>
			<path d="M101.7,50.9v1.5h-1.3v-1.5H101.7z"/>
			<path d="M107.5,43.1v5.6c0,1,0.2,1.7,0.5,2.2s1,0.7,1.8,0.7s1.4-0.2,1.8-0.7s0.5-1.2,0.5-2.2v-5.6h1.2v5.6c0,0.7-0.1,1.3-0.2,1.8
				c-0.2,0.5-0.4,0.9-0.7,1.2s-0.7,0.6-1.1,0.7c-0.4,0.1-0.9,0.2-1.5,0.2c-1.1,0-2-0.3-2.6-0.9s-0.9-1.6-0.9-3v-5.6H107.5z"/>
			<path d="M116.3,43.1v9.3h-1.1v-9.3H116.3z"/>
			<path d="M117.4,46.6v-0.9h1v-1.8h1.1v1.8h1.8v0.9h-1.8v3.9c0,0.3,0.1,0.6,0.2,0.8s0.4,0.3,0.7,0.3c0.2,0,0.4,0,0.5,0
				s0.3-0.1,0.4-0.1l0.2,0.9c-0.2,0.1-0.4,0.1-0.6,0.2s-0.4,0.1-0.7,0.1c-0.4,0-0.7-0.1-0.9-0.2c-0.2-0.1-0.4-0.3-0.6-0.5
				c-0.1-0.2-0.2-0.5-0.3-0.7s-0.1-0.6-0.1-0.9v-3.6C118.4,46.6,117.4,46.6,117.4,46.6z"/>
			<path d="M123.7,45.7v1c0.3-0.4,0.5-0.7,0.9-0.9c0.3-0.2,0.7-0.3,1.1-0.3c0.2,0,0.4,0,0.6,0.1l-0.1,1.1c-0.1,0-0.2,0-0.3,0
				c-0.1,0-0.2,0-0.3,0c-0.2,0-0.4,0-0.6,0.1s-0.4,0.2-0.6,0.4s-0.3,0.4-0.4,0.6c-0.1,0.2-0.2,0.5-0.2,0.8v4h-1.1v-6.7h1V45.7z"/>
			<path d="M130.5,52.3c-0.4,0.2-0.8,0.3-1.4,0.3c-0.3,0-0.6,0-0.9-0.1c-0.3-0.1-0.5-0.2-0.7-0.4s-0.4-0.4-0.5-0.6
				c-0.1-0.3-0.2-0.5-0.2-0.9c0-0.5,0.1-0.8,0.3-1.1c0.2-0.3,0.5-0.5,0.8-0.7s0.7-0.3,1.1-0.4c0.4-0.1,0.8-0.1,1.3-0.1h1.2V48
				c0-0.6-0.1-1-0.4-1.2s-0.6-0.4-1.2-0.4c-0.5,0-0.9,0.1-1.2,0.3s-0.4,0.4-0.5,0.7l-1-0.1c0.1-0.6,0.4-1.1,0.9-1.3
				c0.5-0.3,1.1-0.4,1.9-0.4c0.5,0,0.9,0.1,1.2,0.2s0.6,0.3,0.8,0.5s0.4,0.5,0.4,0.8s0.1,0.7,0.1,1.1v4.4h-1.1v-0.9
				C131.1,51.8,130.8,52,130.5,52.3z M130.3,49.1c-0.5,0-0.8,0.1-1.1,0.1s-0.5,0.2-0.7,0.3s-0.3,0.3-0.4,0.4
				c-0.1,0.2-0.1,0.4-0.1,0.6c0,0.3,0.1,0.6,0.3,0.8s0.5,0.3,1,0.3c0.7,0,1.2-0.2,1.6-0.5c0.4-0.3,0.6-0.8,0.6-1.4v-0.8L130.3,49.1z
				"/>
			<path d="M139.1,52.1c-0.5,0.4-1.1,0.6-2,0.6c-1,0-1.8-0.3-2.4-0.9s-0.8-1.5-0.8-2.6c0-0.6,0.1-1.1,0.2-1.5s0.4-0.8,0.7-1.1
				s0.6-0.5,1-0.7s0.8-0.2,1.3-0.2s1,0.1,1.3,0.2c0.4,0.2,0.7,0.4,0.9,0.7s0.4,0.6,0.5,1s0.2,0.8,0.2,1.3v0.6h-5
				c0,0.3,0,0.7,0.1,0.9c0.1,0.3,0.2,0.5,0.4,0.8s0.4,0.4,0.6,0.5c0.3,0.1,0.5,0.2,0.9,0.2c0.6,0,1-0.1,1.2-0.3
				c0.3-0.2,0.4-0.5,0.5-0.9h1.1C139.9,51.2,139.6,51.7,139.1,52.1z M138.9,47.6c-0.1-0.3-0.2-0.5-0.3-0.7s-0.3-0.3-0.6-0.4
				c-0.2-0.1-0.5-0.2-0.8-0.2c-0.6,0-1.1,0.2-1.4,0.5c-0.3,0.4-0.5,0.9-0.6,1.6h3.8C139,48.2,138.9,47.9,138.9,47.6z"/>
			<path d="M141,46.6v-0.9h1.1v-0.6c0-0.4,0.1-0.7,0.2-0.9c0.1-0.3,0.3-0.5,0.4-0.6c0.2-0.2,0.4-0.3,0.6-0.4s0.5-0.1,0.8-0.1
				c0.2,0,0.4,0,0.6,0s0.4,0.1,0.6,0.1l-0.2,0.9c-0.1,0-0.3-0.1-0.4-0.1c-0.1,0-0.2,0-0.4,0c-0.3,0-0.6,0.1-0.8,0.2
				c-0.2,0.2-0.3,0.5-0.3,0.9v0.6h1.7v0.9h-1.7v5.8H142v-5.8L141,46.6L141,46.6z M145.3,46.6v-0.9h1.1v-0.6c0-0.4,0.1-0.7,0.2-0.9
				c0.1-0.3,0.3-0.5,0.4-0.6c0.2-0.2,0.4-0.3,0.6-0.4s0.5-0.1,0.8-0.1c0.2,0,0.4,0,0.6,0s0.4,0.1,0.6,0.1l-0.2,0.9
				c-0.1,0-0.3-0.1-0.4-0.1c-0.1,0-0.2,0-0.4,0c-0.3,0-0.6,0.1-0.8,0.2c-0.2,0.2-0.3,0.5-0.3,0.9v0.6h1.7v0.9h-1.7v5.8h-1.1v-5.8
				L145.3,46.6L145.3,46.6z M151.5,43.1v1.3h-1.2v-1.3H151.5z M151.4,45.7v6.7h-1.1v-6.7H151.4z"/>
			<path d="M156.6,46.6h-3.8v-0.9h5.2v0.8l-3.9,5h4.1l-0.1,0.9h-5.4v-0.8L156.6,46.6z"/>
			<path d="M160.5,43.1v1.3h-1.2v-1.3H160.5z M160.5,45.7v6.7h-1.1v-6.7H160.5z"/>
			<path d="M167.2,52.1c-0.5,0.4-1.1,0.6-2,0.6c-1,0-1.8-0.3-2.4-0.9s-0.8-1.5-0.8-2.6c0-0.6,0.1-1.1,0.2-1.5
				c0.2-0.5,0.4-0.8,0.7-1.1s0.6-0.5,1-0.7s0.8-0.2,1.3-0.2s1,0.1,1.3,0.2c0.4,0.2,0.7,0.4,0.9,0.7s0.4,0.6,0.5,1s0.2,0.8,0.2,1.3
				v0.6h-5c0,0.3,0,0.7,0.1,0.9c0.1,0.3,0.2,0.5,0.4,0.8s0.4,0.4,0.6,0.5c0.3,0.1,0.5,0.2,0.9,0.2c0.6,0,1-0.1,1.2-0.3
				c0.3-0.2,0.4-0.5,0.5-0.9h1.1C167.9,51.2,167.6,51.7,167.2,52.1z M166.9,47.6c-0.1-0.3-0.2-0.5-0.3-0.7s-0.3-0.3-0.6-0.4
				c-0.2-0.1-0.5-0.2-0.8-0.2c-0.6,0-1.1,0.2-1.4,0.5c-0.3,0.4-0.5,0.9-0.6,1.6h3.8C167,48.2,167,47.9,166.9,47.6z"/>
			<path d="M170.8,45.7v1c0.3-0.4,0.7-0.8,1.1-0.9c0.4-0.2,0.8-0.3,1.3-0.3c0.8,0,1.3,0.2,1.7,0.6c0.4,0.4,0.6,1,0.6,1.8v4.5h-1.1
				v-4.3c0-0.6-0.1-1.1-0.3-1.3c-0.2-0.3-0.6-0.4-1-0.4c-0.3,0-0.5,0-0.7,0.1s-0.5,0.2-0.7,0.4s-0.4,0.4-0.5,0.6
				c-0.1,0.2-0.2,0.5-0.2,0.8v4h-1.1v-6.7C169.6,45.7,170.8,45.7,170.8,45.7z"/>
			<path d="M176.4,46.6v-0.9h1v-1.8h1.1v1.8h1.8v0.9h-1.8v3.9c0,0.3,0.1,0.6,0.2,0.8c0.1,0.2,0.4,0.3,0.7,0.3c0.2,0,0.4,0,0.5,0
				s0.3-0.1,0.4-0.1l0.2,0.9c-0.2,0.1-0.4,0.1-0.6,0.2s-0.4,0.1-0.7,0.1c-0.4,0-0.7-0.1-0.9-0.2c-0.2-0.1-0.4-0.3-0.6-0.5
				c-0.1-0.2-0.2-0.5-0.3-0.7s-0.1-0.6-0.1-0.9v-3.6C177.4,46.6,176.4,46.6,176.4,46.6z"/>
			<path d="M182.8,50.9v1.5h-1.3v-1.5H182.8z"/>
		</g>
	</g>
</g>
<g class="st1">
	<path class="st2" d="M68.4,17.9v2h-8.9v5.4H68v2h-8.4v5.9H69l-0.4,2H57.3V17.9H68.4z"/>
	<path class="st2" d="M77.3,17.9c1.3,0,2.3,0.1,3.2,0.4c0.8,0.3,1.5,0.7,1.9,1.1s0.8,1,1,1.6s0.3,1.2,0.3,1.8c0,1.1-0.2,2-0.7,2.8
		s-1.2,1.4-2.3,1.8l3.6,7.7h-2.5l-3.3-7.2c-0.2,0-0.4,0.1-0.7,0.1c-0.2,0-0.5,0-0.7,0h-3.4v7.1h-2.2V17.9H77.3z M79.4,25.8
		c0.5-0.2,0.9-0.4,1.2-0.7c0.3-0.3,0.5-0.6,0.6-1s0.2-0.9,0.2-1.4s-0.1-0.9-0.2-1.3s-0.3-0.7-0.7-1c-0.3-0.3-0.7-0.5-1.3-0.6
		c-0.5-0.1-1.2-0.2-2-0.2h-3.4v6.3h3.7C78.3,26,78.9,26,79.4,25.8z"/>
	<path class="st2" d="M89.7,32.5c0.7,0.5,1.8,0.8,3.2,0.8c0.7,0,1.3-0.1,1.8-0.2c0.5-0.2,0.9-0.4,1.2-0.6c0.3-0.3,0.5-0.6,0.6-0.9
		c0.1-0.4,0.2-0.7,0.2-1.1c0-0.3,0-0.6-0.1-0.9s-0.2-0.6-0.4-0.8c-0.2-0.2-0.5-0.5-0.9-0.6c-0.4-0.2-0.9-0.3-1.5-0.4l-2.1-0.4
		c-0.8-0.1-1.5-0.3-2.2-0.6c-0.6-0.2-1.2-0.5-1.6-0.9s-0.8-0.8-1-1.3s-0.3-1.2-0.3-2s0.2-1.4,0.5-2s0.7-1,1.3-1.4
		c0.5-0.4,1.2-0.7,1.9-0.8c0.7-0.2,1.5-0.3,2.4-0.3c1.1,0,2,0.1,2.7,0.4c0.7,0.2,1.3,0.6,1.8,1s0.8,0.9,1,1.4s0.4,1,0.5,1.6l-2,0.4
		c-0.1-0.5-0.3-0.9-0.5-1.2c-0.2-0.4-0.4-0.7-0.8-0.9c-0.3-0.2-0.7-0.4-1.2-0.5s-1-0.2-1.7-0.2c-0.8,0-1.4,0.1-1.9,0.2
		s-0.9,0.3-1.2,0.6c-0.3,0.2-0.5,0.5-0.7,0.9c-0.1,0.3-0.2,0.7-0.2,1c0,0.4,0,0.7,0.1,1s0.3,0.6,0.5,0.8c0.2,0.2,0.5,0.4,0.9,0.6
		c0.4,0.1,0.9,0.3,1.4,0.4l2.3,0.4c1.7,0.3,2.9,0.9,3.7,1.6c0.8,0.7,1.2,1.8,1.2,3.3c0,0.7-0.1,1.3-0.4,1.8s-0.6,1.1-1.1,1.5
		s-1.1,0.8-1.9,1C94.8,35,94,35.1,93,35.1s-1.8-0.1-2.6-0.3c-0.8-0.2-1.5-0.5-2.1-0.9s-1-0.9-1.4-1.6c-0.4-0.6-0.6-1.4-0.6-2.3h2.1
		C88.5,31.2,89,32,89.7,32.5z"/>
</g>
<g>
	<path d="M68.4434,17.8972v1.9521h-8.9146v5.3965h8.4326v1.9756h-8.4326v5.9277h9.3726l-0.3618,1.9512H57.312V17.8972H68.4434z"/>
	<path d="M77.2656,17.8972c1.2847,0,2.3369,0.1445,3.1562,0.4336c0.8188,0.2891,1.4653,0.6631,1.9395,1.1211
		c0.4736,0.457,0.7988,0.9756,0.9756,1.5537s0.2651,1.1641,0.2651,1.7588c0,1.0918-0.229,2.0234-0.6865,2.7949
		c-0.458,0.7705-1.209,1.373-2.2529,1.8066l3.6143,7.7344h-2.4819l-3.2524-7.2041c-0.209,0.0322-0.4336,0.0527-0.6748,0.0605
		c-0.2407,0.0078-0.4575,0.0117-0.6504,0.0117h-3.3975v7.1318h-2.1924V17.8972H77.2656z M79.3857,25.8367
		c0.498-0.1533,0.8916-0.3701,1.1807-0.6504c0.2891-0.2812,0.4897-0.623,0.6021-1.0244c0.1128-0.4014,0.1689-0.8516,0.1689-1.3496
		c0-0.4814-0.0645-0.9072-0.1929-1.2764c-0.1284-0.3701-0.3496-0.6865-0.6626-0.9521c-0.313-0.2646-0.7349-0.4658-1.2651-0.6025
		c-0.5298-0.1357-1.2046-0.2041-2.0234-0.2041h-3.3735v6.2881h3.6626C78.2534,26.0652,78.8877,25.989,79.3857,25.8367z"/>
	<path d="M89.5449,32.4373c0.7632,0.5117,1.8994,0.7666,3.4092,0.7666c0.7549,0,1.3853-0.0801,1.8916-0.2402
		c0.5059-0.1602,0.9111-0.374,1.2163-0.6406s0.5225-0.5801,0.6509-0.9385s0.1924-0.7363,0.1924-1.1328
		c0-0.3203-0.04-0.6299-0.1201-0.9268c-0.0806-0.2979-0.2368-0.5684-0.4697-0.8125s-0.5542-0.458-0.9639-0.6416
		c-0.4097-0.1826-0.9355-0.3281-1.5781-0.4346l-2.1685-0.3662c-0.8516-0.1377-1.6064-0.3203-2.2646-0.5488
		c-0.6587-0.2295-1.2168-0.5234-1.6748-0.8818c-0.4575-0.3584-0.8032-0.8047-1.0361-1.3389s-0.3491-1.1826-0.3491-1.9453
		c0-0.748,0.1646-1.4043,0.4937-1.9688c0.3296-0.5645,0.7754-1.0371,1.3374-1.4189c0.562-0.3809,1.229-0.6641,2-0.8467
		s1.606-0.2744,2.5054-0.2744c1.1406,0,2.0923,0.1182,2.8555,0.3545c0.7627,0.2363,1.3853,0.5537,1.8672,0.9502
		s0.8472,0.8506,1.0962,1.3613c0.249,0.5117,0.4375,1.0342,0.5659,1.5684l-2.0718,0.3887c-0.1284-0.458-0.293-0.8662-0.4941-1.2246
		c-0.2007-0.3584-0.4658-0.6562-0.7949-0.8926s-0.7349-0.416-1.2168-0.5381s-1.0679-0.1826-1.7588-0.1826
		c-0.7871,0-1.4458,0.0684-1.9756,0.2061c-0.5303,0.1367-0.9561,0.3242-1.2769,0.5605c-0.3213,0.2363-0.5503,0.5186-0.687,0.8467
		c-0.1362,0.3281-0.2046,0.6758-0.2046,1.042c0,0.3965,0.0522,0.7432,0.1567,1.041c0.104,0.2979,0.2808,0.5566,0.5298,0.7783
		c0.249,0.2207,0.5742,0.4043,0.9761,0.5488c0.4014,0.1455,0.8994,0.2715,1.4937,0.3779l2.4092,0.4121
		c1.7832,0.3203,3.0923,0.8506,3.9272,1.5908c0.8354,0.7402,1.2529,1.8271,1.2529,3.2617c0,0.6562-0.1323,1.2705-0.3975,1.8418
		c-0.2651,0.5723-0.6587,1.0723-1.1807,1.5c-0.522,0.4268-1.1763,0.7627-1.9634,1.0068s-1.7109,0.3662-2.771,0.3662
		c-1.0117,0-1.9316-0.0957-2.7588-0.2861s-1.5459-0.4922-2.1562-0.9043s-1.1001-0.9385-1.4697-1.5791
		c-0.3696-0.6406-0.5942-1.4043-0.6748-2.2891h2.2168C88.3042,31.0984,88.7817,31.9265,89.5449,32.4373z"/>
</g>
</svg>
